HIERARCHY
ROOT Hips
{
  OFFSET 0 0 0
  CHANNELS 6 Xposition Yposition Zposition Zrotation Yrotation Xrotation
  JOINT LeftThigh
  {
    OFFSET 8.409438 0 -5.917753
    CHANNELS 3 Zrotation Yrotation Xrotation
    JOINT LeftLeg
    {
      OFFSET 0 0 -42.358652
      CHANNELS 3 Zrotation Yrotation Xrotation
      JOINT LeftFoot
      {
        OFFSET 0 0 -39.357303
        CHANNELS 3 Zrotation Yrotation Xrotation
      }
    }
  }
  JOINT RightThigh
  {
    OFFSET -8.409438 0 -5.917753
    CHANNELS 3 Zrotation Yrotation Xrotation
    JOINT RightLeg
    {
      OFFSET 0 0 -42.358652
      CHANNELS 3 Zrotation Yrotation Xrotation
      JOINT RightFoot
      {
        OFFSET 0 0 -39.357303
        CHANNELS 3 Zrotation Yrotation Xrotation
      }
    }
  }
  JOINT SpineLow
  {
    OFFSET 0 0 4.719101
    CHANNELS 3 Zrotation Yrotation Xrotation
    JOINT SpineMid
    {
      OFFSET 0 0 12.899191
      CHANNELS 3 Zrotation Yrotation Xrotation
      JOINT Chest
      {
        OFFSET 0 0 12.899191
        CHANNELS 3 Zrotation Yrotation Xrotation
        JOINT LeftShoulder
        {
          OFFSET 7.550562 1.41573 9.438202
          CHANNELS 3 Zrotation Yrotation Xrotation
          JOINT LeftArm
          {
            OFFSET 9.155056 0 4.247191
            CHANNELS 3 Zrotation Yrotation Xrotation
            JOINT LeftForearm
            {
              OFFSET 0 0 25.771955
              CHANNELS 3 Zrotation Yrotation Xrotation
              JOINT LeftHand
              {
                OFFSET 0 0 25.197169
                CHANNELS 3 Zrotation Yrotation Xrotation
              }
            }
          }
        }
        JOINT RightShoulder
        {
          OFFSET -7.550562 1.41573 9.438202
          CHANNELS 3 Zrotation Yrotation Xrotation
          JOINT RightArm
          {
            OFFSET -9.155056 0 4.247191
            CHANNELS 3 Zrotation Yrotation Xrotation
            JOINT RightForearm
            {
              OFFSET 0 0 -25.771955
              CHANNELS 3 Zrotation Yrotation Xrotation
              JOINT RightHand
              {
                OFFSET 0 0 -25.197169
                CHANNELS 3 Zrotation Yrotation Xrotation
              }
            }
          }
        }
        JOINT Neck
        {
          OFFSET 0 0 15.101124
          CHANNELS 3 Zrotation Yrotation Xrotation
          JOINT Head
          {
            OFFSET 0 0 11.325843
            CHANNELS 3 Zrotation Yrotation Xrotation
            End Site
            {
              OFFSET 0 0 14.157303
            }
          }
        }
      }
    }
  }
}
MOTION
Frames: 7
Frame Time: 0.0
0.0  101.685394  0.0  -1.57913  15.159578  -95.011051  29.28535  -17.335714  25.510284  -5.774536  -4.763611  3.020883  -1.566708  0.837469  -2.794118  -7.249536  -2.380332  -32.080197  4.232424  5.973871  47.072702  13.807748  3.733544  1.598905  -1.093805  0.445048  2.297921  -2.944798  1.318806  6.260291  -2.944798  1.318806  6.260291  -14.861195  25.254367  4.242178  132.461963  64.567767  -162.368629  -38.210023  -31.353068  86.458372  58.140943  -17.00742  6.337315  10.400333  -8.300186  17.418821  82.71575  41.762252  29.594349  -38.161045  17.711669  -99.735452  71.473796  20.282675  1.365621  -0.690913  -3.273337  -0.207753  -0.519158  -2.454772  -0.159476  
0.0  101.685394  0.0  -1.744675  15.229357  -94.927833  29.539297  -17.470632  25.854187  -6.348428  -4.91146  1.877906  -1.365935  0.980455  -2.854588  -6.927822  -2.342837  -31.886755  3.616188  6.118942  46.814574  13.895725  3.69149  1.321797  -1.097399  0.428586  2.254496  -2.957037  1.272283  6.142226  -2.957037  1.272283  6.142226  -15.23589  25.394431  4.208299  132.002823  64.463679  -163.091743  -38.527808  -30.992484  86.544459  57.837809  -16.907759  6.414863  9.071807  -8.21155  17.072106  83.321563  40.704144  29.772297  -38.608154  18.469369  -99.409029  71.547637  20.353879  0.517021  -0.90067  -3.322332  -0.173383  -0.676256  -2.4915  -0.134902  
0.0  101.685394  0.0  -1.911998  15.411214  -94.779516  29.959646  -17.6769  26.016394  -6.740857  -4.997077  0.82977  -1.388504  0.980299  -2.922422  -6.422394  -2.273631  -31.86686  2.889169  6.142997  46.715029  13.850341  3.738265  1.180378  -1.12991  0.416154  2.193831  -3.04817  1.238586  5.976309  -3.04817  1.238586  5.976308  -15.064938  25.547829  4.270501  131.037893  64.322166  -163.95792  -38.773331  -30.691796  86.68356  57.450211  -16.822605  6.44467  8.852341  -8.037421  17.150415  82.388885  40.091734  29.231136  -38.573664  18.862291  -99.570426  71.512388  20.364062  -0.336599  -1.055812  -3.408127  -0.125904  -0.792328  -2.555887  -0.100294  
0.0  101.685394  0.0  -2.165982  15.576166  -94.667045  30.245905  -18.004605  25.764436  -6.765536  -4.878261  0.253701  -1.574544  0.924112  -3.013374  -5.69182  -2.204466  -31.995653  2.141979  6.122291  46.677336  13.603024  3.709417  1.200738  -1.214102  0.399052  2.123887  -3.280983  1.196042  5.784294  -3.280983  1.196042  5.784294  -15.136523  25.558166  4.197209  131.042022  64.142294  -164.285771  -38.940377  -30.60947  86.777286  57.109105  -16.816397  6.364335  7.889592  -7.975219  16.741983  82.815594  38.748953  29.365497  -39.251145  19.341146  -99.179675  70.831019  20.997449  -2.178949  -1.066969  -3.529717  -0.068232  -0.800368  -2.647178  -0.057327  
0.0  101.685394  0.0  -2.349359  15.865249  -94.486473  31.004227  -18.567478  25.697393  -7.126638  -4.76257  -0.565888  -1.934829  0.876767  -3.171826  -5.023554  -1.933395  -32.361868  1.337091  6.134536  46.729768  13.550375  3.578374  1.334769  -1.281409  0.390868  2.07216  -3.466508  1.176877  5.642048  -3.466508  1.176877  5.642048  -14.929579  25.621765  4.114766  130.069079  64.038794  -165.034116  -39.055246  -30.730584  86.85076  56.880154  -16.885838  6.181007  7.789042  -7.864001  16.566348  81.760949  37.827964  28.910799  -39.10565  19.405092  -99.382928  70.84208  21.153699  -3.245902  -1.229881  -3.732604  -0.127873  -0.922866  -2.79921  -0.103392  
0.0  101.685394  0.0  -2.59384  16.150732  -94.381353  31.619185  -19.291909  25.564684  -7.389375  -4.544296  -1.241368  -2.562146  0.804483  -3.511021  -4.575733  -1.643004  -32.790559  0.627854  6.127036  46.943224  13.746817  3.473942  1.531167  -1.364173  0.380127  2.024875  -3.694354  1.151967  5.51184  -3.694354  1.151967  5.51184  -14.756923  25.640519  4.071725  129.213271  63.983874  -165.666367  -39.171792  -30.995767  86.911579  56.806884  -17.037673  5.918877  7.775042  -7.803128  16.397989  80.643401  36.765153  28.493764  -39.049122  19.446953  -99.548875  71.540995  20.9657  -3.725082  -1.422233  -3.959394  -0.232346  -1.067757  -2.969025  -0.183418  
0.0  101.685394  0.0  -2.762351  16.458001  -94.327486  31.896844  -19.89693  25.443024  -7.444139  -4.289627  -1.662921  -2.891025  0.792497  -3.603256  -4.137682  -1.412618  -33.11883  -0.181405  6.392017  47.189569  13.878015  3.321391  1.593705  -1.402149  0.377012  2.007302  -3.798667  1.145613  5.463282  -3.798666  1.145613  5.463282  -14.92196  25.648696  3.966067  128.147052  64.001745  -166.360576  -39.275634  -31.35348  86.971194  56.795039  -17.269374  5.608938  7.586173  -7.72645  16.175063  79.186095  35.679793  27.976911  -38.869731  19.456545  -99.863429  71.448192  21.074832  -5.115301  -1.769355  -4.219665  -0.422533  -1.329339  -3.163559  -0.328995  
